<?xml version="1.0" encoding="UTF-8" standalone="no"?>
<!-- Created with Inkscape (http://www.inkscape.org/) -->

<svg
   xmlns:dc="http://purl.org/dc/elements/1.1/"
   xmlns:cc="http://creativecommons.org/ns#"
   xmlns:rdf="http://www.w3.org/1999/02/22-rdf-syntax-ns#"
   xmlns:svg="http://www.w3.org/2000/svg"
   xmlns="http://www.w3.org/2000/svg"
   xmlns:sodipodi="http://sodipodi.sourceforge.net/DTD/sodipodi-0.dtd"
   xmlns:inkscape="http://www.inkscape.org/namespaces/inkscape"
   width="394.4035"
   height="54.991238"
   id="svg2"
   version="1.1"
   inkscape:version="0.48.5 r10040"
   sodipodi:docname="logo.svg">
  <defs
     id="defs4">
    <clipPath
       clipPathUnits="userSpaceOnUse"
       id="clipPath3059">
      <rect
         style="fill:#0000ff;fill-rule:evenodd;stroke:#000000;stroke-width:0.67602265px;stroke-linecap:butt;stroke-linejoin:miter;stroke-opacity:1"
         id="rect3061"
         width="319.38089"
         height="49.205009"
         x="135.3419"
         y="-645.9632"
         transform="scale(1,-1)" />
    </clipPath>
  </defs>
  <sodipodi:namedview
     id="base"
     pagecolor="#ffffff"
     bordercolor="#666666"
     borderopacity="1.0"
     inkscape:pageopacity="0.0"
     inkscape:pageshadow="2"
     inkscape:zoom="1.5395044"
     inkscape:cx="207.83982"
     inkscape:cy="27.495615"
     inkscape:document-units="px"
     inkscape:current-layer="layer1"
     showgrid="false"
     inkscape:window-width="900"
     inkscape:window-height="1547"
     inkscape:window-x="1592"
     inkscape:window-y="-8"
     inkscape:window-maximized="1"
     fit-margin-top="0"
     fit-margin-left="0"
     fit-margin-right="0"
     fit-margin-bottom="0" />
  <metadata
     id="metadata7">
    <rdf:RDF>
      <cc:Work
         rdf:about="">
        <dc:format>image/svg+xml</dc:format>
        <dc:type
           rdf:resource="http://purl.org/dc/dcmitype/StillImage" />
        <dc:title />
      </cc:Work>
    </rdf:RDF>
  </metadata>
  <g
     inkscape:label="Ebene 1"
     inkscape:groupmode="layer"
     id="layer1"
     transform="translate(-211.63571,-622.0094)">
    <g
       id="g10"
       transform="matrix(1.25,0,0,-1.25,37.635714,1427.2094)"
       clip-path="url(#clipPath3059)">
      <g
         id="g12" />
      <g
         id="g14">
        <g
           id="g16">
          <path
             d="m 146.4,622.08 1.44,0 c 4.32,0 7.68,2.4 7.68,7.68 0,4.8 -3.12,7.44 -7.68,7.44 l -1.44,0 0,-15.12 z m -7.2,21.12 10.08,0 c 7.44,0 13.68,-5.76 13.68,-13.44 0,-7.68 -6.24,-13.44 -13.68,-13.44 l -10.08,0 0,26.88 z"
             style="fill:#000000;fill-opacity:1;fill-rule:nonzero;stroke:none"
             id="path18"
             inkscape:connector-curvature="0" />
        </g>
        <g
           id="g20">
          <path
             d="m 178.08,634.8 -0.24,0 -2.88,-8.4 5.76,0 -2.64,8.4 z m -5.04,-13.92 -1.92,-4.56 -7.44,0 10.56,26.88 7.44,0 10.32,-26.88 -7.44,0 -1.92,4.56 -9.6,0 z"
             style="fill:#000000;fill-opacity:1;fill-rule:nonzero;stroke:none"
             id="path22"
             inkscape:connector-curvature="0" />
        </g>
        <g
           id="g24">
          <path
             d="m 202.8,616.32 -7.2,0 0,20.88 -5.76,0 0,6 18.72,0 0,-6 -5.76,0 0,-20.88 z"
             style="fill:#000000;fill-opacity:1;fill-rule:nonzero;stroke:none"
             id="path26"
             inkscape:connector-curvature="0" />
        </g>
        <g
           id="g28">
          <path
             d="m 220.8,634.8 -0.24,0 -2.88,-8.4 5.76,0 -2.64,8.4 z m -5.04,-13.92 -1.92,-4.56 -7.44,0 10.56,26.88 7.44,0 10.32,-26.88 -7.44,0 -1.92,4.56 -9.6,0 z"
             style="fill:#000000;fill-opacity:1;fill-rule:nonzero;stroke:none"
             id="path30"
             inkscape:connector-curvature="0" />
        </g>
        <g
           id="g32">
          <path
             d="m 256.08,637.2 0,-4.32 7.68,0 0,-6 -7.68,0 0,-10.56 -6.96,0 0,26.88 15.6,0 0,-6 -8.64,0 z"
             style="fill:#000000;fill-opacity:1;fill-rule:nonzero;stroke:none"
             id="path34"
             inkscape:connector-curvature="0" />
        </g>
        <g
           id="g36">
          <path
             d="m 274.56,630.24 c 0,-4.8 3.36,-8.16 7.44,-8.16 4.32,0 7.68,3.36 7.68,8.16 0,3.6 -3.36,7.2 -7.68,7.2 -4.08,0 -7.44,-3.6 -7.44,-7.2 z m 22.56,0 c 0,-8.64 -6.24,-14.88 -15.12,-14.88 -8.64,0 -14.88,6.24 -14.88,14.88 0,8.16 7.2,13.92 14.88,13.92 7.92,0 15.12,-5.76 15.12,-13.92 z"
             style="fill:#000000;fill-opacity:1;fill-rule:nonzero;stroke:none"
             id="path38"
             inkscape:connector-curvature="0" />
        </g>
        <g
           id="g40">
          <path
             d="m 307.2,631.2 0.72,0 c 2.4,0 5.04,0.48 5.04,3.36 0,2.88 -2.64,3.36 -5.04,3.36 l -0.72,0 0,-6.72 z m 15.6,-14.88 -8.88,0 -6.48,10.32 -0.24,0 0,-10.32 -6.96,0 0,26.88 10.56,0 c 5.28,0 9.36,-2.4 9.36,-8.16 0,-3.84 -2.16,-6.96 -6,-7.68 l 8.64,-11.04 z"
             style="fill:#000000;fill-opacity:1;fill-rule:nonzero;stroke:none"
             id="path42"
             inkscape:connector-curvature="0" />
        </g>
        <g
           id="g44">
          <path
             d="m 363.84,631.2 c 0,-3.84 -0.48,-7.2 -2.88,-10.56 -2.64,-3.6 -6.48,-5.28 -11.04,-5.28 -8.4,0 -14.4,5.76 -14.4,14.16 0,8.88 6,14.64 14.64,14.64 5.52,0 9.84,-2.64 12.24,-7.68 l -6.72,-2.64 c -0.96,2.4 -3.12,4.32 -5.76,4.32 -4.8,0 -7.2,-4.56 -7.2,-8.64 0,-4.08 2.64,-8.4 7.2,-8.4 3.12,0 5.52,1.68 5.76,4.8 l -5.76,0 0,5.28 13.92,0 z"
             style="fill:#000000;fill-opacity:1;fill-rule:nonzero;stroke:none"
             id="path46"
             inkscape:connector-curvature="0" />
        </g>
        <g
           id="g48">
          <path
             d="m 437.52,622.08 1.68,0 c 4.08,0 7.68,2.4 7.68,7.68 0,4.8 -3.12,7.44 -7.68,7.44 l -1.68,0 0,-15.12 z m -6.96,21.12 9.84,0 c 7.68,0 13.68,-5.76 13.68,-13.44 0,-7.68 -6.24,-13.44 -13.68,-13.44 l -9.84,0 0,26.88 z"
             style="fill:#000000;fill-opacity:1;fill-rule:nonzero;stroke:none"
             id="path50"
             inkscape:connector-curvature="0" />
        </g>
        <g
           id="g52">
          <path
             d="m 412.56,637.44 c -4.08,0 -7.68,-3.6 -7.68,-7.2 0,-4.8 3.6,-8.16 7.68,-8.16 4.32,0 7.68,3.36 7.68,8.16 0,3.6 -3.36,7.2 -7.68,7.2 z m 0,6.72 c 7.68,0 14.88,-5.76 14.88,-13.92 0,-8.64 -6.24,-14.88 -14.88,-14.88 -8.64,0 -14.88,6.24 -14.88,14.88 0,8.16 7.2,13.92 14.88,13.92 z"
             style="fill:#8cc2d9;fill-opacity:1;fill-rule:nonzero;stroke:none"
             id="path54"
             inkscape:connector-curvature="0" />
        </g>
        <g
           id="g56">
          <path
             d="m 382.08,609.12 c 3.6,-2.4 8.4,-4.32 13.68,-4.56 6,-0.48 11.52,0.96 15.6,3.6 0.72,-0.96 1.44,-2.16 2.16,-3.12 -4.56,-3.36 -11.04,-5.28 -18,-4.8 -6.72,0.48 -12.72,3.12 -16.8,6.72 1.2,1.2 2.16,1.92 3.36,2.16 z"
             style="fill:#8cc2d9;fill-opacity:1;fill-rule:nonzero;stroke:none"
             id="path58"
             inkscape:connector-curvature="0" />
        </g>
        <g
           id="g60">
          <path
             d="m 380.88,637.44 c -4.32,0 -7.68,-3.6 -7.68,-7.2 0,-4.8 3.36,-8.16 7.68,-8.16 4.08,0 7.44,3.36 7.44,8.16 0,3.6 -3.36,7.2 -7.44,7.2 z m 0,6.72 c 7.68,0 14.88,-5.76 14.88,-13.92 0,-4.32 -1.68,-8.16 -4.32,-10.8 -0.48,-0.48 -0.96,-0.96 -1.68,-1.44 -6.24,-2.4 -14.16,-1.44 -19.68,1.44 -0.48,0.72 -0.96,1.2 -1.44,1.68 -1.68,2.64 -2.88,5.52 -2.88,9.12 0,8.16 7.2,13.92 15.12,13.92 z"
             style="fill:#8cc2d9;fill-opacity:1;fill-rule:nonzero;stroke:none"
             id="path62"
             inkscape:connector-curvature="0" />
        </g>
        <g
           id="g64">
          <path
             d="m 382.56,613.2 c -3.36,0.96 -7.44,-1.2 -8.4,-5.76 l 1.44,-0.48 c 0.96,2.88 3.84,5.04 6.96,4.56 l 0,1.68 z"
             style="fill:#8cc2d9;fill-opacity:1;fill-rule:nonzero;stroke:none"
             id="path66"
             inkscape:connector-curvature="0" />
        </g>
        <g
           id="g68">
          <path
             d="m 460.32,640.56 c 0.48,0 1.2,0 1.2,0.48 0,0.24 -0.48,0.48 -0.96,0.48 l -0.72,0 0,-0.96 0.48,0 z m 1.44,-1.92 -0.48,0 -0.96,1.44 -0.48,0 0,-1.44 -0.48,0 0,3.36 1.44,0 c 0.48,0 1.2,-0.24 1.2,-0.96 0,-0.72 -0.48,-0.96 -1.2,-0.96 l 0.96,-1.44 z m 1.2,1.68 c 0,1.44 -1.2,2.4 -2.64,2.4 -1.2,0 -2.4,-0.96 -2.4,-2.4 0,-1.44 1.2,-2.64 2.4,-2.64 1.44,0 2.64,1.2 2.64,2.64 z m -5.52,0 c 0,1.68 1.44,2.88 2.88,2.88 1.68,0 3.12,-1.2 3.12,-2.88 0,-1.68 -1.44,-3.12 -3.12,-3.12 -1.44,0 -2.88,1.44 -2.88,3.12 z"
             style="fill:#000000;fill-opacity:1;fill-rule:nonzero;stroke:none"
             id="path70"
             inkscape:connector-curvature="0" />
        </g>
      </g>
    </g>
  </g>
</svg>
