<?xml version="1.0" encoding="UTF-8" standalone="no"?>
<svg width="264px" height="56px" viewBox="0 0 264 56" version="1.1" xmlns="http://www.w3.org/2000/svg" xmlns:xlink="http://www.w3.org/1999/xlink" xmlns:sketch="http://www.bohemiancoding.com/sketch/ns">
    <title>Slice 1</title>
    <description>Created with Sketch (http://www.bohemiancoding.com/sketch)</description>
    <defs></defs>
    <g id="Page-1" stroke="none" stroke-width="1" fill="none" fill-rule="evenodd" sketch:type="MSPage">
        <g id="logo_datalook" sketch:type="MSLayerGroup" transform="translate(1.000000, -1.000000)">
            <g id="g2993" transform="translate(131.000000, 28.375000) scale(1, -1) translate(-131.000000, -28.375000) translate(-0.250000, 0.250000)" sketch:type="MSShapeGroup">
                <g id="g3268">
                    <g id="g3043" transform="translate(189.609375, 19.450125)" fill="#8CC2D9">
                        <path d="M18.75,27.5 C13.65,27.5 9.14875,23 9.14875,18.50125 C9.14875,12.5 13.65,8.30125 18.75,8.30125 C24.14875,8.30125 28.35,12.5 28.35,18.50125 C28.35,23 24.14875,27.5 18.75,27.5 M18.75,35.90125 C28.35,35.90125 37.34875,28.70125 37.34875,18.50125 C37.34875,7.7 29.55,-0.1 18.75,-0.1 C7.94875,-0.1 0.14875,7.7 0.14875,18.50125 C0.14875,28.70125 9.14875,35.90125 18.75,35.90125" id="path3045"></path>
                    </g>
                    <g id="g3047" transform="translate(166.508750, 0.300875)" fill="#8CC2D9">
                        <path d="M3.75,11.25 C8.25,8.25 14.25,5.85 20.85,5.55 C28.35,4.95 35.24875,6.74875 40.34875,10.05 C41.25,8.85 42.15,7.35 43.04875,6.15 C37.35,1.95 29.25,-0.45 20.54875,0.15 C12.15,0.75 4.65,4.04875 -0.44875,8.55 C1.05,10.05 2.25,10.95 3.75,11.25" id="path3049"></path>
                    </g>
                    <g id="g3051" transform="translate(150.008500, 20.700125)" fill="#8CC2D9">
                        <path d="M18.75,26.25 C13.35125,26.25 9.15,21.75 9.15,17.25125 C9.15,11.25 13.35125,7.05125 18.75,7.05125 C23.85,7.05125 28.05,11.25 28.05,17.25125 C28.05,21.75 23.85,26.25 18.75,26.25 M18.75,34.65125 C28.35125,34.65125 37.35,27.45125 37.35,17.25125 C37.35,11.85 35.25,7.05125 31.95,3.75 C31.35,3.15125 30.75125,2.55125 29.85,1.95125 C22.05,-1.05 12.15,0.15125 5.25,3.75 C4.65,4.65125 4.05,5.25125 3.45125,5.85125 C1.35,9.15 -0.15,12.75125 -0.15,17.25125 C-0.15,27.45125 8.85,34.65125 18.75,34.65125" id="path3053"></path>
                    </g>
                    <g id="g3055" transform="translate(160.859375, 9.151000)" fill="#8CC2D9">
                        <path d="M10,7.5 C5.8,8.7 0.7,6 -0.5,0.29875 L1.29875,-0.3 C2.5,3.3 6.09875,6 10,5.39875 L10,7.5 L10,7.5 Z" id="path3057"></path>
                    </g>
                    <g id="g3059" transform="translate(-0.271000, 20.390000)" fill="#000000">
                        <path d="M8.75,7.5 L10.7225,7.5 C15.97,7.5 20.45375,10.3675 20.45375,16.95875 C20.45375,23.01375 16.4625,26.4225 10.81125,26.4225 L8.75,26.4225 L8.75,7.5 L8.75,7.5 Z M-0.03875,33.86625 L12.4275,33.86625 C21.84375,33.86625 29.60125,26.4675 29.60125,16.95875 C29.60125,7.455 21.7975,0.055 12.4275,0.055 L-0.03875,0.055 L-0.03875,33.86625 L-0.03875,33.86625 Z" id="path3061"></path>
                    </g>
                    <g id="g3063" transform="translate(30.665250, 20.058000)" fill="#000000">
                        <path d="M17.5,23.75 L17.41,23.75 L13.7775,12.9875 L21.08875,12.9875 L17.5,23.75 L17.5,23.75 Z M11.3575,6.26 L9.025,0.3875 L-0.3025,0.3875 L12.7025,34.1975 L22.29875,34.1975 L35.03125,0.3875 L25.66125,0.3875 L23.46375,6.26 L11.3575,6.26 L11.3575,6.26 Z" id="path3065"></path>
                    </g>
                    <g id="g3067" transform="translate(62.945500, 20.445000)" fill="#000000">
                        <path d="M16.25,0 L7.4625,0 L7.4625,26.3675 L0.19875,26.3675 L0.19875,33.81125 L23.51625,33.81125 L23.51625,26.3675 L16.25,26.3675 L16.25,0 L16.25,0 Z" id="path3069"></path>
                    </g>
                    <g id="g3071" transform="translate(84.209000, 20.058000)" fill="#000000">
                        <path d="M17.5,23.75 L17.41,23.75 L13.77625,12.9875 L21.085,12.9875 L17.5,23.75 L17.5,23.75 Z M11.35625,6.26 L9.02375,0.3875 L-0.30375,0.3875 L12.7,34.1975 L22.29875,34.1975 L35.03125,0.3875 L25.65875,0.3875 L23.46375,6.26 L11.35625,6.26 L11.35625,6.26 Z" id="path3073"></path>
                    </g>
                    <g id="g3075" transform="translate(129.517875, 20.390000)" fill="#000000">
                        <path d="M8.75,7.5 L19.28875,7.5 L19.28875,0.055 L-0.04125,0.055 L-0.04125,33.86625 L8.75,33.86625 L8.75,7.5 L8.75,7.5 Z" id="path3077"></path>
                    </g>
                    <g id="g3079" transform="translate(230.733625, 20.506000)" fill="#000000">
                        <path d="M20,33.75 L30.8975,33.75 L17.445,17.74 L32.1075,-0.06125 L20.7175,-0.06125 L9.3725,14.60125 L9.2825,14.60125 L9.2825,-0.06125 L0.495,-0.06125 L0.495,33.75 L9.2825,33.75 L9.2825,19.80375 L9.3725,19.80375 L20,33.75 L20,33.75 Z" id="path3081"></path>
                    </g>
                </g>
            </g>
        </g>
    </g>
</svg>